# xmcd
#
# Track frame offsets: 
#        150
#        20209
#        39763
#        57959
#        75291
#        90426
#        110312
#        134061
#        144781
#        166969
#        178631
#        201437
#        216777
#        229916
#        245843
#        280817
#
# Disc length: 3950 seconds
#
# Revision: 1
# Processed by: cddbd v1.5.2PL0 Copyright (c) Steve Scherf et al.
# Submitted via: ExactAudioCopyFreeDBPlugin 1.0
#
DISCID=dc0f6c10
DTITLE=Petr Kalandra and ASPM - 1982-1990 [CD1)
DYEAR=2010
DGENRE=Blues
TTITLE0=Kruti pisen
TTITLE1=A pak
TTITLE2=Spital u Sv. Jakuba
TTITLE3=Cinovy vojacek
TTITLE4=Spadla mi pena
TTITLE5=Jak jsem vyrost
TTITLE6=White Room
TTITLE7=Turpentine Blues
TTITLE8=Jak jste se mely, me mile deti
TTITLE9=Trochu v hlave mam...
TTITLE10=Aceton Blues
TTITLE11=Uzeny vecer
TTITLE12=Basin Street Blues
TTITLE13=Hana
TTITLE14=Jako solnej sloup
TTITLE15=Mestacky blues
EXTD=
EXTT0=
EXTT1=
EXTT2=
EXTT3=
EXTT4=
EXTT5=
EXTT6=
EXTT7=
EXTT8=
EXTT9=
EXTT10=
EXTT11=
EXTT12=
EXTT13=
EXTT14=
EXTT15=
PLAYORDER=
